PathFileType	4	(X/Y/Z)	RBDS016\RBDS016runT35.trc
DataRate	CameraRate	NumFrames	NumMarkers	Units	OrigDataRate	OrigDataStartFrame	OrigNumFrames
150.000000	150.000000	4	33	mm	150.000000	2250	4500
Frame#	Time	L.ASIS			L.Heel.Bottom			L.Heel.Lateral			L.Heel.Top			L.Iliac.Crest			L.MT1			L.MT5			L.PSIS			L.Shank.Bottom.Lateral			L.Shank.Bottom.Medial			L.Shank.Top.Lateral			L.Shank.Top.Medial			L.Thigh.Bottom.Lateral			L.Thigh.Bottom.Medial			L.Thigh.Top.Lateral			L.Thigh.Top.Medial			R.ASIS			R.ASY			R.Heel.Bottom			R.Heel.Lateral			R.Heel.Top			R.Iliac.Crest			R.MT1			R.MT5			R.PSIS			R.Shank.Bottom.Lateral			R.Shank.Bottom.Medial			R.Shank.Top.Lateral			R.Shank.Top.Medial			R.Thigh.Bottom.Lateral			R.Thigh.Bottom.Medial			R.Thigh.Top.Lateral			R.Thigh.Top.Medial			
		X1	Y1	Z1	X2	Y2	Z2	X3	Y3	Z3	X4	Y4	Z4	X5	Y5	Z5	X6	Y6	Z6	X7	Y7	Z7	X8	Y8	Z8	X9	Y9	Z9	X10	Y10	Z10	X11	Y11	Z11	X12	Y12	Z12	X13	Y13	Z13	X14	Y14	Z14	X15	Y15	Z15	X16	Y16	Z16	X17	Y17	Z17	X18	Y18	Z18	X19	Y19	Z19	X20	Y20	Z20	X21	Y21	Z21	X22	Y22	Z22	X23	Y23	Z23	X24	Y24	Z24	X25	Y25	Z25	X26	Y26	Z26	X27	Y27	Z27	X28	Y28	Z28	X29	Y29	Z29	X30	Y30	Z30	X31	Y31	Z31	X32	Y32	Z32	X33	Y33	Z33	

2251	15	2432.659315543956	890.4778330887452	940.1095095894512	2321.941623704126	31.24989464321262	1025.088392598226	2341.562138971207	51.8403628964039	981.1127717096599	2338.215532995941	77.05506793633285	1026.308362198074	2337.762643704521	937.329222874939	889.6135410407892	2546.576963260651	41.89135847051283	1024.33249259064	2490.233461425365	42.33383622334633	926.756528001685	2246.215025953753	904.9724619438095	1033.23558223015	2396.979752749696	154.6543310890971	957.4856871469505	2376.970125904459	167.6208986773316	1008.339597942444	2405.371864204096	233.2973893997897	942.1959136170879	2387.979050969339	246.259963510042	991.4350620120809	2450.296321297427	528.9088302036854	891.8470755434867	2393.166727128703	510.417994903824	933.2597963784003	2404.184355428938	627.165541123677	872.371931207882	2350.170790318087	609.190535960433	912.3086018240166	2447.426434090406	859.1520605687024	1168.226417704674	1968.383875987077	307.9115263804375	1145.813202419302	1958.247627892862	492.8932841156546	1086.498505774837	1973.467969860089	473.7954229279175	1136.082835641554	2005.058116395196	471.5891007639279	1093.400501920561	2386.567487355258	929.1730432929056	1219.852045607994	1929.577244528312	278.7528069069144	1110.58651306991	1920.885402669228	338.4440695071499	1202.609067749429	2259.471792025641	897.1546750432993	1130.345460492964	2070.072779693521	425.7588794406557	1170.837576034762	2076.34478623056	460.1351947048176	1133.62074609135	2152.554680823655	432.2994747478832	1189.289815738868	2155.174042564707	468.1592635458121	1150.075706773583	2365.798586213074	497.9531446515396	1214.742931702671	2311.15225406546	497.0286277580691	1166.825543142078	2346.846373316042	605.4416671098612	1231.508053644155	2296.267703081966	604.2047193589129	1185.595898428865	
2252	15.00666666666667	2429.669146015147	887.1675779362524	938.9111204831556	2299.115232783349	32.27452917971549	1025.386687014798	2318.74887391605	53.09846159175116	981.5078396868485	2315.623742893007	77.98488450835113	1026.849879783805	2334.040597314721	934.5800977019267	889.4099959538515	2523.34390295511	41.87987387828728	1024.110809166685	2466.819893583143	43.17195631989446	926.6904894603427	2243.328072244916	903.5424667191949	1033.168309340148	2378.00582310432	155.949900735894	958.0442355521321	2358.568418749279	169.7186815830132	1008.910420220802	2389.776339025045	234.2489050602392	942.8984875210132	2372.982328827424	247.9115403951507	992.1410282523457	2443.431888732403	525.6184119606329	892.0962792721721	2386.90497200054	508.0785561999788	934.6853090107821	2398.151403552928	624.2442549074136	872.5654427484944	2344.620031507279	607.1407922190228	913.4713049906367	2444.977151777345	856.1037759345926	1167.934933152784	1986.594675405367	304.7962946260286	1145.24935294527	1972.122167773236	490.6248164335099	1089.663720749966	1988.517770534893	470.9010198832186	1138.569176489261	2019.392022749404	469.9874636083294	1095.600235412845	2382.238808714965	925.4154487805478	1219.89252785043	1947.618557758119	275.6951923041541	1109.959421299067	1939.557265512123	333.4338209551201	1203.456398156884	2256.195204094035	895.0021734459599	1129.702078772714	2086.726628738786	423.7223642052541	1171.294462031025	2092.756735714649	458.3255673147028	1134.248271727914	2169.376443922693	430.1126658613277	1189.199585936688	2171.777930379472	466.1348219070416	1150.10859861289	2377.495902671837	496.6544843197813	1213.642336808758	2323.084159195782	493.2526915120101	1165.633412822393	2353.623337050501	603.1355566453552	1230.505261909716	2303.263063454888	599.5260618737934	1184.557111571101	
2253	15.01333333333333	2426.821090804083	884.1695987955969	937.7537811772972	2276.172889075478	33.10998257089719	1025.632204918421	2295.783626685322	54.12642854792821	981.8008358848994	2292.768268569727	78.74711763996694	1027.241462145209	2330.740627492133	932.570372801755	889.1643790625324	2499.914537283931	42.19365717391911	1023.785023532971	2443.29354246715	43.88512039542316	926.5739017804376	2240.662691118181	902.9074208766705	1032.566829749901	2358.4525163882	157.07542820246	958.418474123085	2339.57009915911	171.5818655627942	1009.286084438416	2373.273351407978	234.9255724105475	943.3837238190629	2357.052241240507	249.2253380094278	992.6262803414759	2435.20246359747	522.4192077224856	892.3693700573448	2379.209447776147	506.1053628592819	936.1288447113949	2391.282707376986	621.6326971153123	872.8626700289781	2338.197465466535	605.6750770067201	914.7882429907545	2442.626522535608	854.3049774305239	1167.731808423092	2005.499095534268	300.517626837412	1144.613715700712	1985.485122894657	486.9046690475068	1092.796840739949	2003.149441236414	466.7113215112864	1141.001039256683	2033.3183402702	467.3003159334987	1097.822389285499	2377.756366645379	923.118313977121	1219.660951614413	1966.678894110966	271.158032270701	1109.185356490349	1958.761581843145	326.8799634976596	1204.093934683155	2253.072670846205	893.9423331988951	1128.596910141886	2103.282138507603	421.2325064613328	1171.745414616095	2108.823569600908	456.0013416429726	1134.762281324363	2186.042905372624	428.1275452247164	1189.025945902414	2187.966788899159	464.2206589412315	1149.974539940419	2389.450729972297	496.7558083402645	1212.607043614549	2335.387422831234	490.7939539941578	1164.534351191448	2360.545156333214	601.9601118250652	1229.632994729281	2310.437289727509	595.8939289888015	1183.739459500098	
2254	15.02	2424.197105675292	881.5971360640644	936.6438551602964	2253.076803508801	33.79048173942834	1025.825509350703	2272.659988947223	54.96319955580641	982.0031763244111	2269.67326744819	79.37557859703506	1027.511528844254	2327.917817753942	931.314024762138	888.8024584930444	2476.355439693898	42.61025578633563	1023.435581798405	2419.695262211559	44.37734750928625	926.4508434073499	2238.278000861103	903.0045506077528	1031.475293026043	2338.382060525289	158.0153211756814	958.6524114381098	2319.99424603484	173.1961977482638	1009.494046343204	2355.908645746748	235.3443065373589	943.6753809600663	2340.198322712937	250.2206486850032	992.9047085042397	2425.66189356604	519.4183670968057	892.6525859277182	2370.089827857245	504.5977597576056	937.4990976639018	2383.673917803003	619.4252138700414	873.2278247156013	2330.958399943719	604.8838959778716	916.1561399278281	2440.443003621814	853.8007284446523	1167.587694271473	2025.018013699899	295.1454713878085	1143.918113735985	1998.303959233483	481.6548865937532	1095.792370636342	2017.31713517033	461.1987749870295	1143.301771757289	2046.777684912552	463.4635308402247	1099.972121885938	2373.32066189272	922.2667967635197	1219.173395036325	1986.697746683705	265.2010932017363	1108.28832208376	1978.440206227386	318.9054936190296	1204.505490691713	2250.188506747308	893.8619648751494	1127.100982959829	2119.617493748086	418.274855519488	1172.1765374494	2124.416134681417	453.1457469979935	1135.157311028393	2202.415205035078	426.3405145595129	1188.770325110003	2203.590896328993	462.4147244911346	1149.68822981672	2401.519944911917	498.2664895855862	1211.702020163113	2347.881526457099	489.6793059217982	1163.629707623325	2367.553039788421	601.9317220658068	1228.941470062798	2317.712404354972	593.3427055105818	1183.220372195928	
